<svg width="24" height="24" viewBox="0 0 24 24" fill="none" xmlns="http://www.w3.org/2000/svg">
<g id="github-icon-1" clip-path="url(#clip0_1862_1171)">
<g id="Group">
<path id="Vector" d="M11.9536 0.5C5.35266 0.5 0 5.85172 0 12.4536C0 17.7351 3.42506 22.2158 8.17462 23.7964C8.772 23.907 8.99137 23.5371 8.99137 23.2213C8.99137 22.9363 8.98022 21.9946 8.97516 20.9958C5.64956 21.7189 4.94784 19.5854 4.94784 19.5854C4.40409 18.2037 3.62062 17.8364 3.62062 17.8364C2.53612 17.0945 3.70237 17.1097 3.70237 17.1097C4.90275 17.1941 5.53481 18.3416 5.53481 18.3416C6.60094 20.169 8.33119 19.6407 9.01331 19.3353C9.12056 18.5626 9.43041 18.0354 9.77222 17.7369C7.11722 17.4345 4.32609 16.4096 4.32609 11.8293C4.32609 10.5243 4.79306 9.4579 5.55778 8.62081C5.43366 8.31969 5.02453 7.10394 5.67356 5.45741C5.67356 5.45741 6.67734 5.13612 8.96166 6.68272C9.91509 6.41778 10.9377 6.28503 11.9536 6.28053C12.9695 6.28503 13.9928 6.41778 14.9482 6.68272C17.2297 5.13612 18.2321 5.45741 18.2321 5.45741C18.8827 7.10394 18.4734 8.31969 18.3493 8.62081C19.1157 9.4579 19.5795 10.5242 19.5795 11.8293C19.5795 16.4204 16.7831 17.4314 14.1214 17.7273C14.5501 18.0983 14.9321 18.8258 14.9321 19.9409C14.9321 21.5403 14.9182 22.8276 14.9182 23.2213C14.9182 23.5394 15.1334 23.9122 15.7394 23.7948C20.4863 22.2124 23.9071 17.7333 23.9071 12.4536C23.9071 5.85172 18.5552 0.5 11.9536 0.5Z" fill="#161614"/>
<path id="Vector_2" d="M4.47696 17.5282C4.45071 17.5875 4.35715 17.6054 4.27212 17.5647C4.1854 17.5257 4.13665 17.4447 4.16477 17.385C4.19055 17.3239 4.28412 17.3069 4.37065 17.3479C4.45755 17.3868 4.50705 17.4686 4.47696 17.5282ZM5.06495 18.0528C5.00795 18.1057 4.89649 18.0811 4.82083 17.9976C4.74264 17.9143 4.72802 17.8029 4.78586 17.7492C4.84464 17.6964 4.95274 17.721 5.03111 17.8045C5.1093 17.8888 5.12448 17.9995 5.06486 18.0529L5.06495 18.0528ZM5.46836 18.7241C5.39505 18.775 5.27523 18.7273 5.20126 18.621C5.12805 18.5147 5.12805 18.3872 5.20286 18.3361C5.27711 18.285 5.39504 18.331 5.47004 18.4365C5.54317 18.5445 5.54317 18.672 5.46826 18.7242L5.46836 18.7241ZM6.15048 19.5015C6.08495 19.5737 5.94545 19.5544 5.84326 19.4558C5.73882 19.3594 5.70967 19.2226 5.77539 19.1504C5.84167 19.078 5.98201 19.0983 6.08495 19.1961C6.18873 19.2923 6.22041 19.4301 6.15057 19.5015H6.15048ZM7.03209 19.764C7.00331 19.8576 6.86888 19.9002 6.7335 19.8604C6.59832 19.8195 6.50982 19.7098 6.5371 19.6152C6.56522 19.521 6.70022 19.4766 6.83663 19.5192C6.97163 19.56 7.06031 19.6688 7.03219 19.764H7.03209ZM8.03559 19.8753C8.03896 19.9739 7.92412 20.0557 7.782 20.0575C7.63903 20.0606 7.52343 19.9808 7.52193 19.8839C7.52193 19.7843 7.63415 19.7033 7.77703 19.7009C7.91915 19.6981 8.03559 19.7774 8.03559 19.8753ZM9.02127 19.8375C9.03833 19.9337 8.93952 20.0325 8.79842 20.0588C8.65968 20.0841 8.53124 20.0248 8.51352 19.9294C8.49627 19.8308 8.59696 19.7321 8.73543 19.7065C8.8768 19.6819 9.00327 19.7398 9.02127 19.8375Z" fill="#161614"/>
</g>
</g>
<defs>
<clipPath id="clip0_1862_1171">
<rect width="24" height="23.3472" fill="white" transform="translate(0 0.5)"/>
</clipPath>
</defs>
</svg>
