<svg width="21" height="22" viewBox="0 0 21 22" fill="none" xmlns="http://www.w3.org/2000/svg">
<g id="slack-new-logo" clip-path="url(#clip0_1862_1291)">
<g id="Group">
<path id="Vector" fill-rule="evenodd" clip-rule="evenodd" d="M7.75093 0.75C6.61998 0.750836 5.70469 1.66863 5.70553 2.79958C5.70469 3.93053 6.62082 4.84833 7.75177 4.84916H9.79801V2.80042C9.79884 1.66947 8.88271 0.751672 7.75093 0.75C7.75177 0.75 7.75177 0.75 7.75093 0.75V0.75ZM7.75093 6.21667H2.29597C1.16502 6.2175 0.248892 7.1353 0.249728 8.26625C0.248056 9.3972 1.16418 10.315 2.29513 10.3167H7.75093C8.88188 10.3158 9.798 9.39803 9.79717 8.26708C9.798 7.1353 8.88188 6.2175 7.75093 6.21667Z" fill="#36C5F0"/>
<path id="Vector_2" fill-rule="evenodd" clip-rule="evenodd" d="M20.7092 8.26625C20.7101 7.1353 19.7939 6.2175 18.663 6.21667C17.532 6.2175 16.6159 7.1353 16.6167 8.26625V10.3167H18.663C19.7939 10.3158 20.7101 9.39803 20.7092 8.26625ZM15.2534 8.26625V2.79958C15.2542 1.66947 14.3389 0.751672 13.2079 0.75C12.077 0.750836 11.1608 1.66863 11.1617 2.79958V8.26625C11.16 9.3972 12.0761 10.315 13.2071 10.3167C14.3381 10.3158 15.2542 9.39803 15.2534 8.26625Z" fill="#2EB67D"/>
<path id="Vector_3" fill-rule="evenodd" clip-rule="evenodd" d="M13.2071 21.2502C14.3381 21.2493 15.2542 20.3315 15.2534 19.2006C15.2542 18.0696 14.3381 17.1518 13.2071 17.151H11.1609V19.2006C11.16 20.3307 12.0762 21.2485 13.2071 21.2502ZM13.2071 15.7826H18.663C19.7939 15.7818 20.7101 14.864 20.7092 13.733C20.7109 12.602 19.7948 11.6842 18.6638 11.6826H13.208C12.077 11.6834 11.1609 12.6012 11.1617 13.7322C11.1609 14.864 12.0762 15.7818 13.2071 15.7826Z" fill="#ECB22E"/>
<path id="Vector_4" fill-rule="evenodd" clip-rule="evenodd" d="M0.250214 13.7328C0.249378 14.8637 1.1655 15.7815 2.29645 15.7824C3.4274 15.7815 4.34353 14.8637 4.34269 13.7328V11.6832H2.29645C1.1655 11.684 0.249378 12.6018 0.250214 13.7328ZM5.70601 13.7328V19.1995C5.70434 20.3305 6.62047 21.2483 7.75142 21.2499C8.88236 21.2491 9.79849 20.3313 9.79765 19.2003V13.7344C9.79933 12.6035 8.8832 11.6857 7.75225 11.684C6.62047 11.684 5.70518 12.6018 5.70601 13.7328C5.70601 13.7336 5.70601 13.7328 5.70601 13.7328Z" fill="#E01E5A"/>
</g>
</g>
<defs>
<clipPath id="clip0_1862_1291">
<rect width="20.459" height="20.5" fill="white" transform="translate(0.25 0.75)"/>
</clipPath>
</defs>
</svg>
